<?xml version="1.0" standalone="no"?>
<!DOCTYPE svg PUBLIC "-//W3C//DTD SVG 20010904//EN"
 "http://www.w3.org/TR/2001/REC-SVG-20010904/DTD/svg10.dtd">
<svg version="1.0" xmlns="http://www.w3.org/2000/svg"
 width="517.978343pt" height="137.901301pt" viewBox="0 0 517.978343 137.901301"
 preserveAspectRatio="xMidYMid meet">
<metadata>
Created by Potrace Professional 1.1m
</metadata>
<g transform="translate(-7.000000,155.901301) rotate(-360.00) scale(0.095238,-0.095238)"
fill="#f27e26" stroke="none">
<path d="M3686 1624 c-132 -30 -200 -100 -200 -205 0 -56 16 -94 56 -136 l33
-34 68 -20 c38 -11 103 -26 145 -32 l76 -12 33 -23 c19 -13 38 -36 43 -51 l10
-29 -14 -28 c-8 -16 -27 -38 -43 -50 l-30 -22 -73 -4 -74 -4 -46 18 -47 17
-32 38 -33 37 -52 -24 c-28 -13 -51 -26 -51 -28 0 -17 37 -69 72 -100 l42 -39
60 -17 59 -17 106 4 107 4 56 31 57 31 27 40 26 40 5 58 5 57 -18 45 c-32 85
-95 120 -262 148 -113 19 -157 37 -175 70 l-11 21 7 32 7 32 31 19 c17 10 53
22 78 26 l46 7 56 -16 c31 -9 69 -28 84 -43 l29 -26 52 26 53 27 -22 30 c-45
63 -118 99 -226 109 l-63 6 -57 -13z"/>
<path d="M5137 1627 c-72 -13 -128 -42 -168 -87 l-32 -37 -7 -43 c-4 -23 -4
-62 0 -85 l7 -43 30 -35 c41 -45 112 -75 229 -94 103 -17 149 -35 174 -71 21
-29 21 -54 1 -92 l-15 -29 -43 -17 -42 -17 -64 0 -63 0 -38 15 c-20 9 -54 33
-73 54 l-36 38 -52 -24 c-29 -13 -52 -27 -52 -31 0 -14 61 -91 90 -114 15 -12
52 -30 81 -38 l53 -16 93 0 92 0 50 17 c69 23 117 62 140 113 l20 43 0 56 c1
135 -72 195 -277 228 -119 19 -160 37 -175 75 l-10 26 14 27 c7 15 26 37 42
49 l29 21 71 0 70 0 43 -22 c23 -13 49 -30 56 -39 l14 -16 51 26 52 27 -10 19
c-46 86 -207 139 -345 116z"/>
<path d="M1042 1616 c-77 -13 -148 -52 -201 -109 -55 -60 -80 -115 -95 -205
l-11 -69 11 -66 c21 -127 90 -222 198 -273 l59 -28 115 1 116 0 47 23 c74 36
119 79 155 146 l33 61 13 71 12 70 -12 72 -13 72 -35 62 -34 63 -51 38 c-81
62 -201 90 -307 71z m211 -153 l43 -31 31 -59 31 -60 0 -73 0 -73 -29 -60 -30
-59 -47 -30 -47 -30 -55 -7 -56 -7 -56 17 -56 16 -39 40 c-48 49 -71 112 -71
192 0 113 44 193 130 237 l53 27 77 -4 77 -5 44 -31z"/>
<path d="M4190 1240 l0 -368 68 0 68 0 0 126 0 126 68 0 67 0 109 -126 108
-126 83 0 83 0 -26 28 c-120 134 -187 211 -190 221 -1 6 23 25 55 41 l57 30
29 56 30 56 0 57 c0 98 -45 171 -132 218 l-42 22 -218 4 -217 3 0 -368z m424
226 c16 -10 36 -35 44 -56 l16 -37 -7 -33 c-9 -41 -33 -69 -76 -87 l-33 -14
-116 0 -116 0 0 127 0 128 130 -5 129 -4 29 -19z"/>
<path d="M74 1234 l0 -226 105 0 105 0 0 -304 0 -305 299 0 299 0 0 -105 0
-105 231 0 231 0 0 231 0 231 -231 0 -231 0 0 -105 0 -105 -278 0 -278 0 0
284 0 283 105 0 105 0 0 226 0 226 -231 0 -231 0 0 -226z m414 0 l0 -189 -183
0 -184 0 -3 178 c-2 98 -1 184 2 192 l6 13 181 -2 181 -3 0 -189z m814 -814
l0 -189 -189 0 -189 0 0 189 0 189 189 0 189 0 0 -189z"/>
<path d="M2405 1391 c-61 -19 -121 -68 -150 -124 l-23 -44 0 -89 0 -89 22 -43
c13 -24 40 -58 61 -76 l37 -33 60 -17 60 -18 67 7 68 6 45 22 c25 12 51 29 58
37 l13 16 -35 36 -35 35 -42 -21 -42 -22 -61 0 -61 0 -35 22 c-32 20 -60 60
-60 86 l0 10 206 0 206 0 -6 65 c-4 35 -18 89 -32 119 l-25 54 -33 24 c-71 51
-174 65 -263 37z m180 -111 c24 -13 51 -52 51 -75 l0 -18 -142 0 c-78 0 -142
2 -142 4 0 3 5 17 12 32 30 65 147 96 221 57z"/>
<path d="M1790 1379 c-17 -9 -42 -26 -55 -38 l-23 -22 0 34 0 33 -64 0 -63 0
3 -365 3 -365 60 -3 61 -3 0 143 0 143 31 -27 c18 -14 52 -32 77 -38 l44 -12
56 6 c101 12 167 62 206 156 l16 39 0 69 0 69 -16 38 c-9 21 -28 55 -43 74
l-28 36 -54 25 -53 25 -63 0 -63 0 -32 -17z m184 -135 c17 -16 36 -46 43 -65
l12 -36 -8 -38 c-10 -55 -40 -92 -91 -112 l-44 -18 -37 7 c-139 26 -174 214
-53 280 l36 20 56 -4 55 -4 31 -30z"/>
<path d="M3077 1385 c-14 -6 -42 -22 -61 -37 l-34 -26 0 32 0 32 -63 0 -63 0
0 -257 0 -257 63 0 63 0 0 153 0 153 18 37 17 37 46 21 46 20 44 -14 44 -14
24 -35 24 -36 0 -161 0 -161 57 0 58 0 0 171 0 172 -12 36 c-19 55 -60 104
-108 125 l-43 20 -47 0 c-26 -1 -59 -5 -73 -11z"/>
</g>
</svg>
